<?xml version="1.0" standalone="no"?>
<!DOCTYPE svg PUBLIC "-//W3C//DTD SVG 20010904//EN"
 "http://www.w3.org/TR/2001/REC-SVG-20010904/DTD/svg10.dtd">
<svg version="1.0" xmlns="http://www.w3.org/2000/svg"
 width="700.000000pt" height="700.000000pt" viewBox="0 0 700.000000 700.000000"
 preserveAspectRatio="xMidYMid meet">
<metadata>
Created by potrace 1.11, written by Peter Selinger 2001-2013
</metadata>
<g transform="translate(0.000000,700.000000) scale(0.100000,-0.100000)"
fill="#000000" stroke="none">
<path d="M225 6978 c-15 -4 -39 -17 -53 -30 -56 -52 -52 189 -52 -3456 l0
-3369 23 -33 c12 -18 35 -43 50 -54 28 -21 33 -21 823 -22 558 0 794 3 795 10
3 34 4 313 2 321 -2 7 -236 10 -678 9 l-675 0 2 3145 3 3146 668 1 c475 0 670
3 675 11 6 9 8 220 3 309 l-1 20 -778 0 c-428 0 -791 -3 -807 -8z"/>
<path d="M5187 6976 c-2 -9 -1 -248 2 -311 1 -20 8 -20 676 -19 l675 0 0
-3146 0 -3146 -662 1 c-365 0 -670 -1 -678 -3 -13 -3 -15 -28 -14 -160 1 -86
2 -162 3 -168 1 -8 229 -10 789 -10 768 1 790 2 826 21 23 13 44 35 56 61 20
40 20 71 18 3417 l-3 3376 -21 27 c-11 15 -33 37 -48 48 -27 21 -36 21 -821
22 -552 0 -795 -3 -798 -10z"/>
<path d="M1661 5681 c-17 -32 9 -50 65 -45 39 4 54 0 87 -23 65 -45 148 -135
299 -323 42 -52 109 -135 149 -185 40 -49 219 -272 398 -495 179 -223 379
-472 445 -555 67 -82 126 -157 133 -165 7 -8 71 -88 143 -177 140 -175 219
-259 254 -273 30 -11 96 -6 106 9 4 7 5 87 2 179 l-4 167 -117 145 c-64 80
-120 150 -126 156 -5 6 -24 28 -41 50 -18 21 -74 91 -125 154 -51 63 -149 185
-218 270 -69 85 -128 157 -131 160 -3 3 -50 61 -105 130 -55 69 -102 127 -105
130 -3 3 -21 25 -39 48 -19 24 -42 53 -52 65 -10 12 -44 54 -75 92 -31 39 -66
81 -78 95 -11 14 -84 103 -161 199 -77 95 -150 180 -162 188 -18 12 -75 16
-277 20 -246 4 -255 3 -265 -16z"/>
<path d="M3344 5690 c-30 -12 -38 -28 -24 -46 9 -10 32 -14 80 -13 76 2 138
-21 184 -67 63 -63 60 -31 62 -799 1 -688 2 -701 22 -747 15 -35 27 -48 42
-48 12 0 20 7 21 18 0 9 2 346 3 747 2 657 3 734 18 765 24 50 49 76 103 105
39 20 62 25 121 25 62 0 75 3 83 19 8 14 7 22 -3 30 -16 13 4 13 -369 11 -169
0 -311 1 -315 3 -4 3 -17 1 -28 -3z"/>
<path d="M4782 5658 c-24 -24 -13 -45 32 -62 100 -38 184 -154 220 -300 19
-75 22 -231 7 -283 -5 -18 -8 -33 -6 -33 7 0 -31 -104 -54 -149 -33 -65 -95
-126 -156 -155 -57 -26 -63 -34 -44 -53 8 -8 28 -7 72 3 250 59 410 268 402
526 -8 241 -179 456 -400 503 -16 3 -37 8 -45 11 -9 2 -21 -1 -28 -8z"/>
<path d="M4627 5654 c-1 -2 -17 -6 -35 -9 -71 -12 -166 -67 -232 -134 -111
-112 -160 -236 -155 -393 4 -142 47 -247 145 -352 73 -78 191 -142 283 -152
53 -6 57 -5 57 14 0 15 -12 25 -44 37 -259 99 -323 614 -105 850 22 24 65 55
95 69 46 22 55 30 52 49 -2 16 -10 22 -30 23 -15 1 -29 0 -31 -2z"/>
<path d="M1986 5124 c-3 -8 -6 -344 -6 -747 -1 -705 -2 -733 -21 -771 -44 -90
-109 -129 -216 -130 -75 -1 -105 -14 -80 -34 17 -15 -3 -14 367 -14 372 0 363
0 372 15 13 22 -12 32 -85 33 -82 1 -135 21 -180 67 -64 64 -61 32 -62 809
l-2 707 -28 41 c-29 42 -49 50 -59 24z"/>
<path d="M4393 4442 c-41 -4 -60 -33 -37 -56 13 -14 62 -16 379 -16 317 0 366
2 379 16 20 19 20 28 1 44 -12 10 -98 13 -353 14 -185 0 -352 0 -369 -2z"/>
<path d="M5107 3953 c-2 -4 -7 -19 -10 -33 -16 -67 -85 -75 -622 -74 -330 1
-385 4 -419 18 -36 15 -41 15 -55 1 -17 -16 -17 -23 -10 -214 4 -143 -24 -132
363 -130 394 2 484 14 609 84 111 63 177 180 173 311 -1 34 -18 56 -29 37z"/>
<path d="M4004 3363 c-4 -10 -9 -126 -10 -258 -1 -194 -5 -249 -19 -288 -10
-30 -14 -60 -10 -78 11 -48 71 -60 100 -21 17 21 12 627 -5 647 -17 20 -46 19
-56 -2z"/>
<path d="M2507 2844 c-1 -2 -16 -5 -32 -8 -71 -13 -94 -21 -171 -56 -340 -157
-518 -535 -426 -905 72 -288 286 -504 571 -576 95 -24 127 -20 133 16 6 29
-12 48 -64 64 -20 7 -56 26 -80 43 -137 100 -224 256 -262 473 -13 78 -14 292
-2 345 4 14 9 39 11 55 14 76 64 201 110 271 50 75 146 160 206 181 63 22 89
46 82 73 -3 11 -8 20 -12 21 -23 4 -61 5 -64 3z"/>
<path d="M2700 2830 c-16 -29 3 -56 47 -71 169 -54 302 -240 354 -494 15 -76
20 -289 7 -352 -5 -26 -11 -57 -12 -68 -6 -43 -38 -139 -66 -198 -60 -124
-161 -227 -256 -262 -69 -25 -89 -46 -74 -75 11 -20 18 -22 68 -17 32 2 93 17
137 32 234 78 407 256 483 495 35 110 48 256 30 349 -5 25 -11 60 -14 76 -21
123 -109 281 -213 386 -95 95 -203 158 -338 198 -91 27 -139 28 -153 1z"/>
<path d="M4243 2814 c-7 -3 -13 -19 -13 -35 0 -34 27 -54 85 -64 114 -20 284
-91 379 -159 203 -144 279 -340 242 -614 -31 -227 -146 -420 -313 -529 -54
-34 -71 -64 -59 -101 10 -31 27 -32 97 -7 392 137 628 431 615 765 -7 163 -56
277 -169 393 -75 76 -87 85 -153 128 -131 86 -360 169 -589 215 -45 9 -111 13
-122 8z"/>
<path d="M3880 1804 c-73 -32 -121 -104 -124 -188 -6 -160 88 -283 259 -341
83 -28 134 -36 252 -39 89 -3 144 16 139 48 -4 27 -16 31 -104 32 -152 1 -203
33 -210 132 -3 41 2 71 17 109 27 70 36 144 21 174 -40 77 -160 112 -250 73z"/>
</g>
</svg>
