<?xml version="1.0" encoding="utf-8"?>
<!-- Generator: Adobe Illustrator 23.0.2, SVG Export Plug-In . SVG Version: 6.00 Build 0)  -->
<svg version="1.1" id="Layer_1" xmlns="http://www.w3.org/2000/svg" xmlns:xlink="http://www.w3.org/1999/xlink" x="0px" y="0px"
	 viewBox="0 0 105 108.5" style="enable-background:new 0 0 105 108.5;" xml:space="preserve">
<style type="text/css">
	.st0{fill:#FFFFFF;}
</style>
<path class="st0" d="M97.8,106.5h2.8c1.3,0,2.3-1,2.3-2.3V4.2c0-1.3-1-2.3-2.3-2.3h-2.8V106.5z"/>
<rect x="77.5" y="101.4" class="st0" width="21.9" height="5.1"/>
<rect x="77.5" y="1.9" class="st0" width="21.9" height="5.1"/>
<path class="st0" d="M6.5,106.5H3.7c-1.3,0-2.3-1-2.3-2.3V4.2c0-1.3,1-2.3,2.3-2.3h2.8C6.5,1.9,6.5,106.5,6.5,106.5z"/>
<rect x="4.9" y="101.4" class="st0" width="21.9" height="5.1"/>
<rect x="4.9" y="1.9" class="st0" width="21.9" height="5.1"/>
<g>
	<path class="st0" d="M30.7,31.2v20.2c0,1.4,1.2,3.2,3.4,3.2c0.3,0,0.8-0.1,1.1-0.1c0.2,0,0.5,0.2,0.5,0.4c0,0.3-0.2,0.4-0.8,0.4
		c-0.3,0-2.3-0.1-4.8-0.1c-2.4,0-4.5,0.1-4.9,0.1c-0.5,0-0.8-0.2-0.8-0.4c0-0.2,0.2-0.4,0.5-0.4s0.7,0.1,1,0.1
		c2.2,0,3.4-1.8,3.4-3.2V30.1c0-0.5,0.5-0.7,0.8-0.2l0.4,0.6C30.6,30.7,30.7,30.9,30.7,31.2z M25,22.3c-0.2,0-0.5-0.2-0.5-0.5
		c0-0.3,0.2-0.5,0.8-0.5c0.1,0,3.3,0.1,6.5,0.1c0.4,0,0.9,0,1.3,0.5c4.1,5.1,17.9,22,22.7,28v3.5c0,0.4,0.2,0.9,0.2,1.2
		c0,0.3-0.2,0.7-0.7,0.7h-0.8c-0.8,0-2.6-2.3-3.7-3.7l-20.1-25c-2.5-3.2-4-4.4-4.6-4.4C25.7,22.2,25.2,22.3,25,22.3z M54.4,45.5
		V25.4c0-1.4-1.2-3.2-3.4-3.2c-0.3,0-0.8,0.1-1.1,0.1c-0.2,0-0.5-0.2-0.5-0.5c0-0.3,0.2-0.5,0.8-0.5c0.3,0,2.3,0.1,4.8,0.1
		c2.4,0,4.5-0.1,4.9-0.1c0.5,0,0.8,0.2,0.8,0.5c0,0.2-0.2,0.5-0.5,0.5s-0.7-0.1-1.1-0.1c-2.2,0-3.4,1.8-3.4,3.2v21.3
		c0,0.6-0.5,0.7-0.8,0.2l-0.4-0.6C54.5,46,54.4,45.8,54.4,45.5z"/>
</g>
<g>
	<g>
		<path class="st0" d="M69.6,37.6c-4-0.5-6.9-3.9-6.9-7.9c0-4.1,2.9-7.4,6.9-7.9c0.3,0,0.5,0.1,0.5,0.4c0,0.2-0.1,0.4-0.3,0.5
			c-2.3,0.6-4,3.5-4,7.1c0,3.6,1.7,6.5,4,7.1c0.3,0.1,0.3,0.4,0.3,0.5C70.1,37.5,69.9,37.7,69.6,37.6z M71.5,36.8
			c2.3-0.6,4-3.5,4-7.1c0-3.6-1.6-6.5-4-7.1c-0.2-0.1-0.3-0.2-0.3-0.4c0-0.2,0.2-0.5,0.5-0.5c4,0.5,6.8,3.9,6.9,7.9
			c0,4.1-2.9,7.4-6.9,7.9c-0.3,0-0.5-0.2-0.5-0.4C71.2,37,71.3,36.9,71.5,36.8z"/>
	</g>
</g>
<g>
	<path class="st0" d="M37.7,87.5c-5.9-0.8-10.2-5.7-10.2-11.8c0-6.1,4.3-11,10.2-11.7c0.4-0.1,0.8,0.2,0.8,0.5
		c0,0.4-0.2,0.5-0.5,0.7c-3.5,0.9-5.9,5.2-5.9,10.5c0,5.3,2.5,9.6,5.9,10.5c0.5,0.2,0.5,0.5,0.5,0.7C38.5,87.2,38.1,87.5,37.7,87.5z
		 M40.5,86.2c3.5-0.9,5.9-5.2,5.9-10.5c0-5.3-2.4-9.6-5.9-10.5c-0.3-0.1-0.5-0.3-0.5-0.6c0-0.4,0.3-0.8,0.8-0.7
		C46.7,64.7,51,69.6,51,75.7c0,6.1-4.3,11-10.2,11.7c-0.4,0.1-0.8-0.3-0.8-0.6C40.1,86.5,40.3,86.3,40.5,86.2z"/>
</g>
<g>
	<path class="st0" d="M65.1,88.1c-0.4,0.1-0.7,0.1-1,0.1c-5.1,0-8.1-2-8.1-5.6c0-1.7,1.2-3.2,3.1-3.2c1.5,0,2.7,0.8,2.7,2
		c0,1.5-0.8,2-0.8,3.4c0,1.4,0.8,2.2,3.1,2.2c0.3,0,0.6,0,0.9-0.1c0.5-0.1,0.8,0.1,0.8,0.5S65.5,88,65.1,88.1z M60.8,56.7v6.9
		c0,1,0.1,1.4,0.1,1.8c0,0.6-0.5,0.9-1,0.9c-0.5,0-0.8-0.5-0.8-1s0.5-1.1,0.5-2.2v-6.3c0-0.4,0.2-0.7,0.6-0.7S60.8,56.3,60.8,56.7z
		 M59.5,53.2v-1.3c0-1-0.2-2-0.2-2.4s0.3-1,0.7-1s0.5,0.5,1.3,0.5h11.3c2.2,0,3.5-0.3,3.5-1.3c0-0.5,0.6-0.6,0.6,0
		c0,4.2-3,6.2-8.7,6.2h-7.7C59.8,53.9,59.5,53.6,59.5,53.2z M63.9,64.5c5.5,0.8,15,3.6,15,11.5c0,6.1-4.9,9.9-10,11.5
		c-0.5,0.2-0.8-0.2-0.8-0.7c0-0.5,0.2-0.8,0.5-0.9c3.2-1.8,5.3-5.5,5.3-10.4c0-6.3-5.9-8.8-10.2-9.6c-0.4-0.1-0.6-0.3-0.6-0.8
		S63.4,64.4,63.9,64.5z"/>
</g>
<line class="st0" x1="65.4" y1="40.6" x2="76.1" y2="40.6"/>
<path class="st0" d="M76.1,41.1H65.4c-0.3,0-0.5-0.2-0.5-0.5s0.2-0.5,0.5-0.5h10.7c0.3,0,0.5,0.2,0.5,0.5S76.4,41.1,76.1,41.1z"/>
</svg>
